<svg width="448" height="362" viewBox="0 0 448 362" fill="none" xmlns="http://www.w3.org/2000/svg">
<path d="M52.7074 143L41.054 102.273H50.4602L57.2017 130.571H57.5398L64.9773 102.273H73.0312L80.4489 130.631H80.8068L87.5483 102.273H96.9545L85.3011 143H76.9091L69.1534 116.372H68.8352L61.0994 143H52.7074ZM101.563 143V102.273H129.006V109.372H110.174V119.077H127.594V126.176H110.174V135.901H129.086V143H101.563ZM57.9773 211H43.5398V170.273H58.0966C62.1932 170.273 65.7197 171.088 68.6761 172.719C71.6326 174.336 73.9063 176.663 75.4972 179.699C77.1013 182.735 77.9034 186.367 77.9034 190.597C77.9034 194.839 77.1013 198.485 75.4972 201.534C73.9063 204.583 71.6193 206.923 68.6364 208.554C65.6667 210.185 62.1136 211 57.9773 211ZM52.1506 203.622H57.6193C60.1648 203.622 62.3059 203.171 64.0426 202.27C65.7926 201.355 67.1051 199.943 67.9801 198.034C68.8684 196.112 69.3125 193.633 69.3125 190.597C69.3125 187.587 68.8684 185.128 67.9801 183.219C67.1051 181.31 65.7992 179.904 64.0625 179.003C62.3258 178.101 60.1847 177.651 57.6392 177.651H52.1506V203.622ZM84.282 211V170.273H111.725V177.372H92.8928V187.077H110.313V194.176H92.8928V203.901H111.805V211H84.282ZM125.929 170.273L135.773 201.216H136.151L146.014 170.273H155.56L141.52 211H130.423L116.364 170.273H125.929ZM160.462 211V170.273H187.905V177.372H169.072V187.077H186.493V194.176H169.072V203.901H187.984V211H160.462ZM194.751 211V170.273H203.362V203.901H220.822V211H194.751ZM262.364 190.636C262.364 195.078 261.522 198.856 259.839 201.972C258.168 205.087 255.888 207.467 252.998 209.111C250.121 210.741 246.886 211.557 243.293 211.557C239.674 211.557 236.426 210.735 233.549 209.091C230.672 207.447 228.398 205.067 226.728 201.952C225.058 198.836 224.222 195.064 224.222 190.636C224.222 186.195 225.058 182.417 226.728 179.301C228.398 176.186 230.672 173.812 233.549 172.182C236.426 170.538 239.674 169.716 243.293 169.716C246.886 169.716 250.121 170.538 252.998 172.182C255.888 173.812 258.168 176.186 259.839 179.301C261.522 182.417 262.364 186.195 262.364 190.636ZM253.634 190.636C253.634 187.759 253.203 185.333 252.342 183.358C251.493 181.383 250.293 179.884 248.742 178.864C247.191 177.843 245.375 177.332 243.293 177.332C241.212 177.332 239.396 177.843 237.844 178.864C236.293 179.884 235.087 181.383 234.225 183.358C233.377 185.333 232.952 187.759 232.952 190.636C232.952 193.513 233.377 195.939 234.225 197.915C235.087 199.89 236.293 201.388 237.844 202.409C239.396 203.43 241.212 203.94 243.293 203.94C245.375 203.94 247.191 203.43 248.742 202.409C250.293 201.388 251.493 199.89 252.342 197.915C253.203 195.939 253.634 193.513 253.634 190.636ZM268.743 211V170.273H284.811C287.9 170.273 290.532 170.863 292.706 172.043C294.88 173.209 296.537 174.833 297.678 176.915C298.831 178.983 299.408 181.369 299.408 184.074C299.408 186.778 298.824 189.165 297.658 191.233C296.491 193.301 294.801 194.912 292.587 196.065C290.386 197.219 287.721 197.795 284.592 197.795H274.351V190.895H283.2C284.857 190.895 286.223 190.61 287.297 190.04C288.384 189.456 289.193 188.654 289.723 187.634C290.267 186.599 290.538 185.413 290.538 184.074C290.538 182.722 290.267 181.542 289.723 180.534C289.193 179.513 288.384 178.724 287.297 178.168C286.21 177.598 284.831 177.312 283.161 177.312H277.354V211H268.743ZM41.9886 245.372V238.273H75.4375V245.372H62.9688V279H54.4574V245.372H41.9886ZM82.9893 279H73.7621L87.8217 238.273H98.9183L112.958 279H103.731L93.5291 247.58H93.2109L82.9893 279ZM82.4126 262.991H104.208V269.713H82.4126V262.991ZM117.86 279V238.273H126.471V271.901H143.931V279H117.86ZM149.634 279V238.273H177.077V245.372H158.244V255.077H175.665V262.176H158.244V271.901H177.156V279H149.634ZM217.988 238.273V279H210.55L192.832 253.366H192.533V279H183.923V238.273H191.479L209.059 263.886H209.417V238.273H217.988ZM223.551 245.372V238.273H257V245.372H244.531V279H236.02V245.372H223.551Z" fill="#1C5985"/>
<rect x="50" y="3" width="174" height="28" fill="#1C5985"/>
<path d="M224 0L245.651 37.5H202.349L224 0Z" fill="white"/>
<rect x="199" y="359" width="174" height="28" transform="rotate(-180 199 359)" fill="#1C5985"/>
<path d="M25 362L3.34937 324.5H46.6506L25 362Z" fill="white"/>
</svg>
