<svg width="100" height="100" viewBox="0 0 100 100" fill="none" xmlns="http://www.w3.org/2000/svg">
<circle cx="50" cy="50" r="50" fill="#4AB3FF"/>
<path d="M48.4708 42.5833L75 37.1146L74.9833 37.0271L72.8833 28L28.7812 36.7417C26.5854 37.1771 25 39.1042 25 41.3396V71.75C25 75.2021 27.7979 78 31.25 78H68.75C72.2021 78 75 75.2021 75 71.75V42.5833H48.4708ZM66.8958 31.6604L71.8875 35.0021L65.65 36.2417L60.6542 32.8979L66.8958 31.6604ZM54.6083 34.0958L59.6083 37.4417L53.3708 38.6812L48.3687 35.3333L54.6083 34.0958ZM42.3083 36.5354L47.3146 39.8854L41.0792 41.125L36.0667 37.7708L42.3083 36.5354ZM36.9854 48.8333L41.2333 44.6667H47.5958L43.3479 48.8333H36.9854ZM45.8333 69.6667V55.0833L58.3333 62.1958L45.8333 69.6667ZM55.8896 48.8333H49.5271L53.775 44.6667H60.1375L55.8896 48.8333ZM68.4146 48.8333H62.0521L66.3 44.6667H72.6625L68.4146 48.8333Z" fill="white"/>
</svg>
