<svg width="100" height="100" viewBox="0 0 100 100" fill="none" xmlns="http://www.w3.org/2000/svg">
<circle cx="50" cy="50" r="50" fill="#4AB3FF"/>
<path fill-rule="evenodd" clip-rule="evenodd" d="M70.8333 75.9167H29.1667C27.1604 75.9167 25 74.3313 25 71.75V34.25C25 32.2438 26.5833 30.0833 29.1667 30.0833H70.8333C72.8396 30.0833 75 31.6667 75 34.25V71.75C75 74.3375 72.8292 75.9167 70.8333 75.9167ZM72.9167 63.4167H27.0833V71.75C27.0833 72.7583 27.8812 73.8333 29.1667 73.8333H70.8333C71.8333 73.8333 72.9167 73.0438 72.9167 71.75V63.4167ZM31.25 71.75V65.5L37.5 68.625L31.25 71.75ZM68.75 67.5833V69.6667H41.6667V67.5833H68.75ZM70.8333 32.1667H29.1667C28.1542 32.1667 27.0833 32.9667 27.0833 34.25V61.3333H72.9167V34.25C72.9167 32.9604 71.8354 32.1667 70.8333 32.1667ZM50.9042 36.8458C50.2833 36.8458 49.8354 37.4583 50.0333 38.0542C50.0333 38.0542 48.7417 42.4833 40.6521 46.4542C39.0375 47.2479 38.2917 48.6083 38.2917 49.9396C38.2917 51.9979 39.9229 53.4708 42.1042 53.4708C42.5792 53.4708 43.0625 53.3979 43.5333 53.25L47.1792 57.2729C47.4125 57.5354 47.7417 57.6792 48.0813 57.6792C48.2042 57.6792 51.1479 56.9896 51.4021 56.9042C51.8625 56.7542 52.0542 56.1979 51.7792 55.7938L49.125 51.6708C51.1729 50.9896 53.7625 51.0854 55.4229 51.5813C55.6354 52.2354 56.2917 52.2625 56.5833 52.1646C57.0625 52.0042 57.3229 51.4833 57.1625 51.0042L51.7729 37.475C51.6458 37.0896 51.2896 36.8458 50.9042 36.8458V36.8458ZM50.8917 40.8896L54.2104 49.225C50.5833 48.7521 48.625 49.6417 45.9208 50.5396L49.0062 55.3333L48.3687 55.4813L44.1792 50.8625C42.8812 51.2729 42.6271 51.3875 42.1042 51.3875C40.1083 51.3875 39.7042 49.2417 41.5708 48.325C46.9208 45.6979 49.5917 42.8292 50.8917 40.8896ZM56.0167 38.0646C57.7958 38.8167 59.2833 40.25 60.0687 42.1833C60.8521 44.1188 60.7792 46.1917 60.0292 47.9708L61.7562 48.7063C62.2417 47.5521 62.5 46.3 62.5 45.025C62.5 41.3146 60.3062 37.8396 56.7458 36.3333L56.0167 38.0646V38.0646ZM54.7708 41.0208C55.7937 41.4521 56.6542 42.2771 57.1042 43.3917C57.5562 44.5063 57.5146 45.6979 57.0833 46.7229L58.7667 47.4375C59.3792 45.9771 59.4417 44.2854 58.8 42.7021C58.1583 41.1188 56.9375 39.9458 55.4812 39.3313L54.7708 41.0208Z" fill="white"/>
</svg>
