<svg width="235" height="235" viewBox="0 0 235 235" fill="none" xmlns="http://www.w3.org/2000/svg">
<g clip-path="url(#clip0_14_228)">
<path d="M250.72 183.774C254.558 183.63 257.643 186.775 257.456 190.556C257.271 194.16 254.328 197.038 250.693 197.163C222.031 198.118 200.656 192.385 185.804 179.844C182.974 177.459 182.645 173.234 185.066 170.413C187.486 167.592 191.747 167.238 194.567 169.626C206.882 180.009 225.385 184.704 250.72 183.774ZM164.46 208.397C157.899 216.228 146.915 229.36 121.084 248.417C117.502 251.062 117.346 256.329 120.751 259.136C122.78 260.935 126.207 261.273 128.784 259.371C152.417 241.979 164.378 229.156 171.681 220.623C178.94 212.15 179.759 211.752 190.71 214.916C201.32 217.994 218.798 221.731 247.44 221.726C250.719 221.719 253.332 219.305 253.865 216.628C254.859 212.386 251.635 208.338 247.255 208.336C213.073 208.318 196.143 202.707 187.72 199.909C176.803 196.289 173.893 197.126 164.46 208.397ZM172.816 239.365C167.74 244.849 160.083 253.111 145.957 264.583C144.116 266.073 143.184 268.385 143.478 270.717C144.113 275.751 150.095 278.451 153.926 275.361C169.108 263.107 177.309 254.236 182.712 248.4C186.831 243.941 189.741 242.284 196.696 243.3C205.496 244.575 219.378 246.595 237.94 247.188C243.191 247.361 246.385 241.609 243.775 237.149C242.596 235.129 240.463 233.866 238.104 233.782C220.396 233.188 207.136 231.263 198.709 230.04C185.449 228.116 183.772 227.529 172.816 239.365ZM177.602 273.65C175.748 275.5 175.19 278.263 176.185 280.662C177.73 284.389 181.961 285.321 185.142 284.164C186.033 283.839 186.849 283.342 187.491 282.699C201.31 268.89 195.363 270.522 217.138 271.963C218.003 272.026 218.892 271.879 219.764 271.562C222.896 270.422 225.635 267.075 224.448 263.173C223.673 260.617 221.38 258.825 218.699 258.647C190.366 256.822 196.911 254.428 177.602 273.65ZM150.032 126.208C150.227 122.512 147.357 119.378 143.649 119.209C139.931 119.044 136.766 121.892 136.57 125.588C135.114 153.809 115.811 182.184 84.3607 203.043C81.3701 205.029 80.4066 208.96 82.1554 212.059C84.0288 215.379 88.3676 216.427 91.6109 214.282C122.599 193.77 148.136 162.97 150.032 126.208ZM171.1 164.388C175.826 152.337 178.547 139.896 179.188 127.402C179.831 114.853 175.047 104.178 165.723 97.3515C155.965 90.2169 142.389 88.5184 130.29 92.9219C123.458 95.4087 117.564 99.6822 113.239 105.28C108.519 111.41 105.801 119.017 105.371 127.277C104.478 144.529 92.2418 162.595 71.9675 177.246C69.4406 179.075 68.4493 182.351 69.5599 185.251C71.1105 189.298 76.1063 190.749 79.6449 188.198C103.345 171.08 117.725 149.252 118.832 127.898C119.438 116.038 126.45 108.564 134.868 105.5C148.846 100.413 166.734 107.47 165.734 126.801C163.636 167.604 136.866 203.121 100.89 227.533C99.3079 228.608 98.2369 230.294 97.9589 232.18C97.6809 234.066 98.1914 235.986 99.3915 237.456C101.543 240.11 105.387 240.65 108.225 238.731C125.867 226.778 141.047 212.596 152.635 197.137C160.453 186.698 166.667 175.69 171.1 164.388ZM92.0525 124.431C93.1356 118.484 94.1717 112.863 97.2829 106.853C104.635 92.6376 117.843 82.2657 133.521 78.3773C148.296 74.7179 163.425 77.2703 175.018 85.3664C191.072 96.5831 193.864 112.505 196.561 127.896C198.858 141.061 201.25 154.668 212.36 163.294C220.75 169.807 233.146 172.556 250.605 171.611C254.29 171.412 257.098 168.161 256.725 164.517C256.347 160.83 253.139 158.107 249.404 158.291C235.847 158.991 226.372 157.141 220.699 152.732C213.639 147.254 211.884 137.195 209.836 125.537C206.97 109.165 203.392 88.7959 182.812 74.4042C168.033 64.0753 148.914 60.7917 130.335 65.392C110.87 70.2044 94.4592 83.1056 85.3202 100.787C81.2785 108.566 79.959 115.753 78.7977 122.095C76.9647 132.073 75.408 140.466 63.31 149.958C61.3971 151.463 60.3441 153.93 60.9759 156.793C62.0274 161.51 67.7006 163.513 71.5497 160.505C87.7547 147.8 89.9289 135.957 92.0525 124.431ZM65.8673 115.228L67.6176 108.25C74.8814 81.0306 97.7997 60.6395 128.935 53.6859C158.524 47.0844 187.558 54.6743 202.895 73.0251C216.487 89.2949 219.32 105.391 221.591 118.332C223.55 129.502 225.248 139.16 233.513 144.388C236.87 146.514 240.95 147.612 246.037 147.7C250.277 147.775 253.454 143.836 252.48 139.757C251.746 136.676 249.037 134.47 245.85 134.333C243.656 134.245 241.964 133.83 240.784 133.084C237.491 131.012 236.324 124.365 234.852 115.966C232.437 102.235 229.139 83.4263 213.271 64.4376C191.084 37.894 148.638 31.4054 112.342 44.616C88.2039 53.4016 67.9126 70.5642 57.9816 94.8415C55.5049 101.042 54.1597 105.356 53.7514 112C53.4777 116.334 55.0972 118.804 58.5149 119.667C61.873 120.517 65.062 118.559 65.8673 115.228Z" fill="white"/>
</g>
<defs>
<clipPath id="clip0_14_228">
<rect width="250" height="250" fill="white" transform="translate(0 85.5051) rotate(-20)"/>
</clipPath>
</defs>
</svg>
