<svg width="100" height="100" viewBox="0 0 100 100" fill="none" xmlns="http://www.w3.org/2000/svg">
<circle cx="50" cy="50" r="50" fill="#4AB3FF"/>
<g clip-path="url(#clip0_34_472)">
<path d="M25 25C30.8313 27.5 43.0896 26.9896 42.3063 38.2729L37.8417 42.8271C26.7208 43.0208 26.9271 31.15 25 25H25ZM47.675 57.0875C53.3167 61.3542 72.3083 74.6938 72.3083 74.6938C73.8792 75.7625 75.7708 73.825 74.675 72.2729C74.675 72.2729 60.9104 53.5979 56.5104 48.0667C53.0354 43.6896 51.2979 43.5354 45.1354 41.7208L41.0667 45.8813C43.0167 51.9875 43.2188 53.7146 47.675 57.0875V57.0875ZM37.5146 64.0292L42.9729 58.5583C42.4313 58.05 41.9542 57.5479 41.5354 57.05L36.0417 62.5563L37.5146 64.0292ZM54.6896 40.775L64.6979 30.7458L69.1854 35.2354L59.4021 45.0396C60.3146 46.1333 61.0958 47.1667 61.9979 48.3396L75 35.3125L64.6896 25L50.6875 39.0271C52.1563 39.5042 53.4542 40.0333 54.6896 40.775V40.775ZM64.7667 33.7625L56.4917 42.0563C56.9917 42.4708 57.5 42.9375 58.0167 43.475L66.2375 35.2333L64.7667 33.7625V33.7625ZM44.5563 59.9167L37.0563 67.4313L30.85 69.15L32.5667 62.9438L40.2271 55.2667C39.4854 54.0521 38.9417 52.7604 38.4375 51.3L28.8 60.9563L25 75L39.1104 71.2688L47.9167 62.4479C45.8333 60.9313 45.7708 60.8875 44.5563 59.9167V59.9167Z" fill="white"/>
</g>
<defs>
<clipPath id="clip0_34_472">
<rect width="50" height="50" fill="white" transform="translate(25 25)"/>
</clipPath>
</defs>
</svg>
