<svg width="70" height="147" viewBox="0 0 70 147" fill="none" xmlns="http://www.w3.org/2000/svg">
<path d="M33.9393 146.061C34.5251 146.646 35.4749 146.646 36.0607 146.061L45.6066 136.515C46.1924 135.929 46.1924 134.979 45.6066 134.393C45.0208 133.808 44.0711 133.808 43.4853 134.393L35 142.879L26.5147 134.393C25.9289 133.808 24.9792 133.808 24.3934 134.393C23.8076 134.979 23.8076 135.929 24.3934 136.515L33.9393 146.061ZM33.5 90V145H36.5V90H33.5Z" fill="white"/>
<path d="M56.5571 49.8663C57.5809 50.1958 58.0913 51.3188 57.68 52.2958C57.2863 53.2263 56.2363 53.7017 55.2679 53.3867C47.635 50.8929 42.56 47.3375 39.8534 42.6154C39.3371 41.7171 39.655 40.5738 40.5621 40.0633C41.4692 39.5529 42.6242 39.8679 43.1375 40.7663C45.3834 44.6775 49.8021 47.6846 56.5571 49.8663V49.8663ZM31.5029 48.0842C29.0267 49.5163 24.8792 51.9196 16.2575 54.46C15.0617 54.8129 14.5163 56.1838 15.1434 57.2483C15.505 57.9163 16.3742 58.3333 17.2346 58.0796C25.1184 55.7667 29.4934 53.5383 32.2321 51.9925C34.9534 50.4583 35.2071 50.4321 37.7854 52.3133C40.2821 54.1392 44.523 56.7963 52.0596 59.5379C52.923 59.85 53.8417 59.465 54.2384 58.8117C54.9063 57.7908 54.4454 56.4171 53.2934 55.9971C44.3013 52.7187 40.3842 49.6212 38.4359 48.0783C35.91 46.0804 35.0642 46.0221 31.5029 48.0842V48.0842ZM30.7359 57.0325C28.875 57.9892 26.0692 59.43 21.2538 61.0954C20.6267 61.3113 20.16 61.8304 20.0142 62.4721C19.6992 63.8575 21.0146 65.1408 22.3184 64.6946C27.4867 62.9242 30.4938 61.3754 32.4742 60.3575C33.985 59.5788 34.9096 59.4213 36.6421 60.3546C38.8354 61.5329 42.2946 63.3938 47.1217 65.3275C48.4867 65.8758 49.8779 64.6683 49.6184 63.245C49.5017 62.6004 49.0613 62.0638 48.4488 61.8158C43.8463 59.9638 40.5417 58.1875 38.4417 57.0588C35.1371 55.2825 34.7521 54.9675 30.7359 57.0325V57.0325ZM28.7117 66.5117C28.0467 66.8208 27.6354 67.4946 27.6675 68.2208C27.7171 69.3496 28.7409 70 29.6888 70C29.9542 70 30.2167 69.9475 30.4471 69.8396C35.4054 67.5296 33.6846 67.3896 39.2759 69.8542C39.4975 69.9533 39.7454 70 40.005 70C40.9384 70 41.9796 69.3817 42.0409 68.2412C42.0817 67.4946 41.65 66.8033 40.9617 66.5C33.6817 63.3062 35.6329 63.3033 28.7117 66.5117V66.5117ZM35.5775 25.0775C35.9829 24.1237 35.5279 23.0242 34.5684 22.6246C33.6059 22.225 32.5004 22.6713 32.095 23.625C29.0092 30.9108 21.2129 36.5283 10.9404 39.0046C9.96336 39.2408 9.33336 40.1829 9.49669 41.1658C9.67169 42.2188 10.7129 42.91 11.7717 42.6563C21.8896 40.2267 31.5584 34.5683 35.5775 25.0775ZM37.4646 37.1408C39.8621 34.4225 41.7696 31.4096 43.1346 28.1838C44.5054 24.9433 44.2692 21.6767 42.4696 18.9875C40.5854 16.1758 37.1759 14.4288 33.5709 14.4288C31.535 14.4288 29.575 14.9887 27.9009 16.0475C26.0721 17.2083 24.6284 18.9496 23.7242 21.0817C21.8371 25.5354 16.8875 29.1171 10.15 31.0304C9.31003 31.2696 8.73544 32.0367 8.75003 32.9058C8.77044 34.1192 9.94586 34.9796 11.1213 34.6471C18.9963 32.4129 24.8704 28.0467 27.2067 22.5342C28.5017 19.4717 31.0625 18.1767 33.5709 18.1767C37.7359 18.1767 41.7667 21.7467 39.6521 26.7371C35.1925 37.2721 24.7479 44.0533 12.9442 47.0313C12.425 47.1625 11.9817 47.5038 11.7279 47.9733C11.4742 48.4429 11.4246 48.9971 11.5996 49.4988C11.9117 50.4029 12.8713 50.9133 13.8017 50.68C19.5884 49.2246 24.9404 46.9467 29.47 43.9892C32.5267 41.9913 35.2159 39.69 37.4646 37.1408V37.1408ZM20.4925 19.0575C21.3471 17.5963 22.1579 16.2167 23.5521 14.9333C26.8479 11.8971 31.3163 10.4329 35.8138 10.9113C40.0517 11.3633 43.7879 13.4838 46.0629 16.7242C49.213 21.2129 48.4225 25.6696 47.6584 29.9775C47.0021 33.6613 46.3284 37.4704 48.4255 40.8042C50.0092 43.3213 53.0075 45.2317 57.6917 46.655C58.6805 46.9554 59.7305 46.3692 59.9813 45.3746C60.235 44.3683 59.6517 43.3446 58.6513 43.0354C55.0171 41.9213 52.7013 40.5271 51.6309 38.8238C50.2979 36.7063 50.7996 33.8917 51.3771 30.6279C52.1909 26.0458 53.2 20.3438 49.1634 14.5863C46.2642 10.4533 41.5479 7.75833 36.2192 7.18958C30.6367 6.59167 25.0834 8.41458 20.9854 12.1917C19.1771 13.8512 18.1417 15.6158 17.2288 17.1733C15.7909 19.6233 14.5775 21.6825 10.4854 23.0213C9.83794 23.2342 9.32461 23.7825 9.21669 24.5962C9.04169 25.9379 10.3425 27.0083 11.6434 26.5854C17.1238 24.7946 18.83 21.8867 20.4925 19.0575V19.0575ZM14.4842 14.1283L15.6129 12.46C20.1309 5.99375 28.1138 2.82333 36.9717 3.97542C45.3892 5.07208 52.3017 9.84958 54.5796 16.1467C56.5979 21.7292 55.8017 26.2354 55.16 29.8579C54.6059 32.9846 54.1275 35.6883 55.8017 37.8554C56.4813 38.7363 57.4496 39.4158 58.7796 39.9263C59.888 40.3521 61.1013 39.62 61.2355 38.4533C61.3375 37.5725 60.8359 36.7325 60.0105 36.3913C59.4417 36.1579 59.0363 35.8867 58.7971 35.5775C58.1292 34.7171 58.4588 32.8562 58.8759 30.5054C59.5555 26.6612 60.4888 21.3967 58.1321 14.8808C54.8363 5.77208 44.2896 0 33.4746 0C26.2821 0 19.2996 2.5725 14.3617 8.00917C13.1163 9.40333 12.3492 10.4096 11.6054 12.1188C11.1184 13.2329 11.3079 14.0379 12.1246 14.5921C12.9267 15.1375 13.9534 14.9275 14.4842 14.1283Z" fill="white"/>
</svg>
