<svg width="50" height="50" viewBox="0 0 50 50" fill="none" xmlns="http://www.w3.org/2000/svg">
<path d="M9.5292 35.3937C5.84587 36.7416 1.78129 34.8207 0.435456 31.102C-0.912461 27.3832 0.981289 23.2749 4.65837 21.927L11.4125 19.4541L16.2834 32.9207L9.5292 35.3937ZM22.6167 42.002C21.7063 41.6874 20.9209 41.1062 20.348 40.3353L16.9417 35.7478L10.0646 38.2666L15.4855 45.252C16.0938 46.0353 17.1313 46.3353 18.0625 45.9936L22.6792 44.3062C23.1563 44.1311 23.475 43.6666 23.473 43.1541C23.4688 42.6416 23.148 42.1874 22.6625 42.0187L22.6167 42.002ZM14.0959 18.4728L18.9667 31.9395C23.4563 31.0707 29.5438 31.1041 37.5 32.7749L27.7605 5.84365C22.6021 12.4374 18.0459 16.2687 14.0959 18.4728ZM36.5855 12.0103C38.3688 12.8666 39.8271 14.4041 40.5292 16.4207C41.2355 18.4353 41.0584 20.5457 40.2021 22.3291L43.1334 23.7416C44.3521 21.2082 44.6084 18.2082 43.6063 15.3457C42.6042 12.4812 40.5355 10.2957 38.0042 9.07699L36.5855 12.0103ZM39.0605 6.8749C42.1563 8.36449 44.6813 11.0374 45.9063 14.5374C47.1313 18.0374 46.8188 21.7062 45.3292 24.802L48.3355 26.252C50.1959 22.3832 50.5834 17.8041 49.0563 13.4332C47.525 9.06449 44.375 5.72907 40.5105 3.86865L39.0605 6.8749Z" fill="white"/>
</svg>
