<svg width="50" height="50" viewBox="0 0 50 50" fill="none" xmlns="http://www.w3.org/2000/svg">
<path fill-rule="evenodd" clip-rule="evenodd" d="M4.1687 20.7854C4.19162 18.2542 4.43953 17.7792 6.41662 17.3458C8.84578 16.8125 10.2645 16.3479 9.1687 14.3833C5.83537 8.40625 8.98328 5.20833 12.5041 5.20833C16.0937 5.20833 19.1854 8.52708 15.8437 14.3833C15.2208 15.4708 15.3958 16.1021 16.075 16.5354C16.5062 16.1792 17.1312 15.9062 18.0375 15.7083C21.1812 15.0187 23.0187 14.4146 21.5979 11.8729C17.2895 4.14583 20.4479 0.0104167 24.9937 0H25.0104C29.5562 0.0104167 32.7145 4.14583 28.4062 11.8729C26.9875 14.4146 28.8229 15.0187 31.9687 15.7083C32.875 15.9062 33.4979 16.1792 33.9291 16.5354C34.6104 16.1021 34.7833 15.4708 34.1625 14.3833C30.8208 8.52708 33.9125 5.20833 37.502 5.20833C41.0208 5.20833 44.1687 8.40625 40.8375 14.3833C39.7395 16.3479 41.1583 16.8125 43.5875 17.3458C45.5645 17.7792 45.8145 18.2542 45.8354 20.7854L45.8312 22.9167L29.1666 39.5833V50L20.8333 47.2396V39.5833L4.17495 22.9167L4.1687 20.7854ZM42.8854 22.9167H7.12078L22.9166 38.7208V45.7354L27.0833 47.1146V38.7208L42.8854 22.9167ZM25.4645 35.2375H24.5395V34.3146C23.5833 34.2979 22.5937 34.0708 21.7687 33.6437L22.1895 32.125C23.0729 32.4667 24.2479 32.8312 25.1687 32.6229C26.2312 32.3833 26.4479 31.2896 25.275 30.7667C24.4145 30.3646 21.7833 30.0208 21.7833 27.7687C21.7833 26.5104 22.7437 25.3833 24.5395 25.1354V24.15H25.4645V25.0896C26.1333 25.1083 26.8833 25.225 27.7208 25.4792L27.3875 27.0021C26.677 26.7521 25.8937 26.525 25.1291 26.5708C23.7541 26.6521 23.6333 27.8438 24.5937 28.3417C26.175 29.0854 28.2354 29.6375 28.2354 31.6187C28.2375 33.2062 26.9958 34.05 25.4645 34.2646V35.2375ZM32.675 20.8333C32.6854 18.0146 32.7895 18.0271 31.475 17.7396C31.3395 17.7083 23.2291 16.6958 26.4666 10.8979C28.2729 7.66042 28.7437 4.9125 27.7625 3.3625C27.2208 2.50833 26.1145 2.07708 25.002 2.07708C23.8916 2.07708 22.7833 2.50833 22.2437 3.3625C21.2604 4.9125 21.7312 7.66042 23.5375 10.8979C26.777 16.6958 18.6645 17.7083 18.5312 17.7396C17.2145 18.0271 17.3187 18.0146 17.3312 20.8333H32.675ZM15.1812 18.4583C14.5125 18.1 13.9104 17.5938 13.5562 16.8458C13.0687 15.8208 13.1895 14.6562 13.9145 13.3896C15.1104 11.2917 15.402 9.45833 14.7125 8.36042C13.8083 6.91667 11.1916 6.95208 10.3145 8.33542C9.62495 9.42083 9.91453 11.2708 11.1083 13.4104C11.8187 14.6812 11.9312 15.8417 11.4416 16.8625C10.577 18.6604 8.23537 19.0729 7.00412 19.3563C6.52287 19.4667 6.38745 19.4979 6.37078 20.0667L6.36662 20.8333H15.1354C15.1354 19.9125 15.1125 19.1271 15.1812 18.4583ZM43.6395 20.8333L43.6333 20.0667C43.6187 19.4979 43.4833 19.4667 43 19.3563C41.7687 19.0729 39.4291 18.6604 38.5625 16.8625C38.075 15.8417 38.1854 14.6812 38.8958 13.4104C40.0895 11.2708 40.3791 9.42083 39.6916 8.33542C38.8125 6.95208 36.1958 6.91667 35.2916 8.36042C34.602 9.45833 34.8937 11.2917 36.0895 13.3896C36.8145 14.6562 36.9354 15.8208 36.4479 16.8458C36.0937 17.5938 35.4937 18.1 34.8229 18.4583C34.8937 19.1271 34.8687 19.9125 34.8687 20.8333H43.6395Z" fill="white"/>
</svg>
