<svg width="45" height="45" viewBox="0 0 45 45" fill="none" xmlns="http://www.w3.org/2000/svg">
<path d="M24.645 15.3206C24.5794 15.1969 25.2863 15.1294 25.4119 15.1294C25.5506 15.1463 25.0444 15.9769 24.645 15.3206ZM20.61 9.56063L20.8125 9.5025C20.9325 9.60563 20.6775 9.68062 20.7169 9.7575C20.8781 10.0481 20.7563 10.2225 20.7319 10.38C20.7056 10.5394 20.5369 10.47 20.4525 10.5544C20.3531 10.6781 20.9363 10.695 20.9438 10.7138C20.9644 10.7756 20.2406 10.8806 20.3738 11.0344C20.5538 11.2894 21.9188 10.6687 21.7013 10.7044C22.1231 10.4925 21.7556 10.47 21.5194 10.3481C21.4388 9.945 21.3713 9.3225 21.12 9.07313L21.285 8.88188C20.8988 8.32125 20.61 9.56063 20.61 9.56063ZM45 22.5C45 34.9256 34.9256 45 22.5 45C10.0725 45 0 34.9256 0 22.5C0 10.0744 10.0725 0 22.5 0C34.9256 0 45 10.0744 45 22.5ZM29.4187 12.4294C29.4075 12.1556 29.0625 11.8969 28.7025 12.3713C28.4494 12.6975 28.4944 13.1944 28.3575 13.4156C28.1625 13.7438 29.4206 14.0513 29.4206 13.7419C29.4675 13.2225 30.7931 13.6237 31.0519 13.695C31.5169 13.8244 32.2575 13.2712 31.4475 12.9806C30.7819 12.7369 30.4312 12.4763 30.3713 12C30.3713 12 30.7238 11.67 30.57 11.6888C30.1613 11.7394 29.4187 13.1625 29.4187 12.4294ZM41.2238 22.5C41.2238 20.5594 40.8919 18.6 40.5544 17.565C40.4456 17.2388 40.2 16.98 39.8813 16.8562C39.4012 16.6687 37.3744 17.9756 37.0688 17.3325C36.8681 16.9031 36.4613 17.6062 35.9963 17.3475C35.7713 17.2237 35.145 16.3819 34.8619 16.485C34.2825 16.6931 35.7506 18.2925 36.1519 18.5025C36.5288 18.2175 37.7494 17.6306 38.0119 18.4312C38.5144 19.9387 36.63 21.5906 35.6662 22.4606C34.2262 23.7619 34.4963 21.6187 33.5156 20.8631C33 20.4675 33.0056 19.6256 32.4844 19.335C32.2519 19.2038 31.185 17.9756 31.1944 17.8106L31.1625 18.1219C30.9863 18.255 30.6112 17.6194 30.5719 17.52C30.5719 18.0731 31.4719 18.9544 31.77 19.3969C32.2781 20.1562 32.55 21.2625 33.1725 21.8831C33.5062 22.2169 34.7812 23.5969 35.1131 23.5669C35.475 23.535 36.6188 22.7081 36.8213 22.755C38.0288 23.04 33.9787 28.7644 33.5944 29.4731C33.2775 30.0675 33.8531 31.5375 33.8063 32.2406C33.7519 33.0525 33.1125 33.315 32.5069 33.7575C31.8581 34.2319 32.01 35.1544 31.4644 35.4919C30.495 36.0881 29.7975 38.0288 28.4212 38.0194C28.0163 38.0175 26.2838 38.6944 26.0569 38.0325C25.8806 37.5525 25.6444 37.1887 25.395 36.7144C25.1512 36.2494 25.3669 35.7675 25.0706 35.3569C24.8663 35.0719 24.18 34.425 24.1181 34.0875C24.1144 33.7969 24.3375 32.9137 24.6431 32.76C25.0725 32.5406 24.7256 31.9013 24.6731 31.53C24.5831 30.8662 24.1725 30.3188 23.6794 29.9344C22.95 29.3738 23.3269 28.9275 23.4975 28.1269C23.4975 27.7444 23.265 27.2419 22.7512 27.3919C21.6938 27.6994 22.0144 26.5669 21.2437 26.6175C20.6887 26.6569 20.235 27.0094 19.7194 27.165C19.0706 27.36 18.4069 27.0112 17.7656 26.9306C15.1275 26.5969 14.2669 23.5819 14.955 21.4069C15.0244 21.0506 14.7413 20.3906 14.865 20.115C15.1613 19.455 15.765 18.7144 16.2937 18.2137C16.59 17.9325 16.9706 18.0037 17.3194 17.7844C17.8575 17.445 17.865 16.7475 18.3919 16.32C19.1419 15.7106 20.1656 15.7238 21.1444 15.5925C21.6656 15.5231 23.6494 15.0937 23.9625 15.48C23.9625 15.5512 24.3206 16.6125 23.9269 16.5525C24.7387 16.5956 25.8956 17.9569 26.6663 17.6381C27.0619 17.4731 26.9175 16.2581 27.7294 16.845C28.2206 17.1975 30.4219 17.355 30.8794 16.9744C31.1606 16.7419 31.3181 15.2306 30.9769 15.06C31.1944 15.2756 29.8312 15.2925 29.7038 15.2438C29.4788 15.1613 29.2687 15.4575 28.9069 15.2906C29.1244 15.3937 27.6956 14.6269 28.4981 14.04C28.1625 14.2856 27.8494 13.9706 27.4875 14.2406C27.2381 14.4431 27.6037 14.5781 27.2475 14.7544C26.6812 15.0413 26.2537 13.77 26.04 13.6256C25.8225 13.4831 24.1388 12.3019 24.5963 13.0725L26.0756 14.5444C26.0025 14.5913 25.6875 14.0081 25.6875 14.4338C25.7869 14.1806 25.725 15.5194 25.4925 15.0844C25.3894 14.9175 25.6613 14.8237 25.5037 14.5819C25.5037 14.4225 25.0763 14.2669 24.9937 14.1581C24.7594 13.8675 24.1369 13.2263 23.7994 13.0725C23.7056 13.0294 22.3669 13.2356 22.2544 13.2787C22.1231 13.4625 22.0106 13.6556 21.9187 13.8619C21.6412 13.965 21.3806 14.0981 21.1331 14.2631L20.8388 14.925C20.7113 15.0394 19.4044 15.4706 19.3969 15.4875C19.4513 15.3469 18.4838 15.1669 18.5475 14.8856C18.6187 14.5763 18.9469 13.6106 18.8625 13.2581C18.7725 12.8888 20.8763 13.7906 21.0113 12.8175C21.0656 12.3956 21.0975 11.9044 20.4244 11.8331C20.5519 11.8481 21.7275 11.3719 21.9225 11.1581C22.1963 10.8431 22.8244 10.3294 23.28 10.3294C23.8125 10.3294 23.6981 9.555 23.9438 9.17625C24.1894 9.27563 23.8125 9.88125 24.1069 10.1269C24.0881 9.93375 24.9412 10.2338 25.0238 10.1888C25.2188 10.0875 26.3062 10.1475 26.1375 9.6375C25.95 9.11812 26.2331 9.27188 26.4769 9.16313C26.4356 9.18 27.1144 8.0025 27.2306 8.38875C27.15 7.99125 26.4412 8.5275 26.1938 8.50688C25.6219 8.46187 25.8638 7.53188 26.0794 7.26C26.2463 7.04437 25.6237 6.78 25.6162 7.1925C25.605 7.80937 25.0312 8.36812 25.1644 9.1875C25.3669 10.4231 23.7863 8.88937 23.6475 8.97375C23.1225 9.2925 22.6931 8.5725 22.965 8.14125C23.2425 7.70062 23.9119 7.72125 24.1875 7.24875C24.3825 6.915 24.6094 6.52688 24.9094 6.27375C25.9125 5.43187 26.19 6.105 27.1894 6.19688C28.1663 6.28688 27.5194 6.42937 27.3844 6.80437C27.255 7.16062 27.9206 7.28813 28.1512 6.99C28.2825 6.8175 28.5806 6.38438 28.71 6.06375C28.8769 5.6475 30.3994 5.69438 29.3363 5.05875C28.635 4.64062 25.5788 3.79875 23.5312 3.79875C23.0888 3.79875 22.7794 4.29187 22.4419 4.57125C21.7744 5.12437 20.0644 6.21 19.1138 5.88C18.1406 5.54437 16.0575 7.1175 15.7237 7.12875C15.6019 7.13625 15.7313 5.94 16.395 5.85188C16.1081 5.895 18.7331 4.52625 18.6619 4.24125C18.5756 3.90375 13.4137 5.7825 13.6444 6.15938C13.755 6.33188 14.205 6.33187 13.6144 6.71063C13.2769 6.915 12.9169 8.2125 12.6 8.2125C11.6531 8.62687 11.5931 7.39687 10.5394 8.97937L8.86313 9.65438C6.37313 12.3 4.65 15.6506 4.02563 19.3725C4.00125 19.5206 4.65188 19.7963 4.73625 19.8975C4.94625 20.1488 4.94625 21.2325 5.04938 21.5869C5.30813 22.4831 5.9475 22.9819 6.43688 23.7975C6.72563 24.2831 7.20563 25.5112 7.05375 26.0212C7.25625 25.6875 9.06 27.5494 9.39 27.9375C10.1663 28.8506 10.7644 29.9569 9.50437 30.8606C9.0975 31.1531 10.1231 32.9775 9.59438 33.4256L8.9175 33.6C8.25 34.0106 8.55188 35.0175 8.95687 35.4412C12.3656 39.0056 17.1694 41.2294 22.4944 41.2294C32.8387 41.2294 41.2238 32.8444 41.2238 22.5ZM19.6481 10.5806C19.8825 10.4775 20.1975 10.4812 20.2313 10.1681C20.2594 9.89062 20.3137 10.0819 20.3813 9.98063C20.4469 9.88125 20.2556 9.72188 20.175 9.70687C20.055 9.68062 19.9725 9.83625 19.8956 9.90188L19.7606 9.9375L19.6331 10.1006L19.6481 10.1906L19.485 10.3894C19.3256 10.5469 19.4888 10.65 19.6481 10.5806Z" fill="white"/>
</svg>
