<svg width="120" height="120" viewBox="0 0 120 120" fill="none" xmlns="http://www.w3.org/2000/svg">
<path d="M42.72 39.36V56.64C42.72 66.1441 50.4958 73.92 60 73.92C69.5041 73.92 77.28 66.1441 77.28 56.64V39.36C77.28 29.8558 69.5041 22.08 60 22.08C50.4958 22.08 42.72 29.8558 42.72 39.36V39.36ZM60 25.9196C67.3921 25.9196 73.4396 31.9678 73.4396 39.3593V56.6393C73.4396 64.0315 67.3915 70.0789 60 70.0789C52.6078 70.0789 46.5603 64.0308 46.5603 56.6393V39.3593C46.5603 31.9671 52.6078 25.919 60 25.919V25.9196Z" fill="white"/>
<path d="M59.9999 42.24C61.056 42.24 61.9198 41.3761 61.9198 40.3202V34.5598C61.9198 33.5038 61.0559 32.64 59.9999 32.64C58.944 32.64 58.0801 33.5038 58.0801 34.5598V40.3202C58.0801 41.3762 58.944 42.24 59.9999 42.24Z" fill="white"/>
<path d="M58.656 88.704C59.0397 89.0877 59.5198 89.2799 60 89.2799C60.4801 89.2799 60.9602 89.0877 61.3439 88.704L66.1439 83.904C66.912 83.1359 66.912 81.9841 66.1439 81.216C65.3758 80.4479 64.2241 80.4479 63.4559 81.216L59.9999 84.672L56.5439 81.216C55.7758 80.4479 54.6241 80.4479 53.8559 81.216C53.0878 81.9841 53.0878 83.1358 53.8559 83.904L58.656 88.704Z" fill="white"/>
</svg>
