<svg width="485" height="626" viewBox="0 0 485 626" fill="none" xmlns="http://www.w3.org/2000/svg">
<path d="M615.163 641.138C628.325 645.375 634.888 659.813 629.6 672.375C624.538 684.338 611.038 690.45 598.588 686.4C500.45 654.338 435.2 608.625 400.4 547.913C393.763 536.363 397.85 521.663 409.513 515.1C421.175 508.538 436.025 512.588 442.625 524.138C471.5 574.425 528.313 613.088 615.163 641.138V641.138ZM293.038 618.225C261.2 636.638 207.875 667.538 97.0251 700.2C81.6501 704.738 74.6376 722.363 82.7001 736.05C87.3501 744.638 98.5251 750 109.588 746.738C210.95 717 267.2 688.35 302.413 668.475C337.4 648.75 340.663 648.413 373.813 672.6C405.913 696.075 460.438 730.238 557.338 765.488C568.438 769.5 580.25 764.55 585.35 756.15C593.938 743.025 588.013 725.362 573.2 719.962C457.588 677.812 407.225 637.987 382.175 618.15C349.7 592.462 338.825 591.713 293.038 618.225V618.225ZM283.175 733.275C259.25 745.575 223.175 764.1 161.263 785.513C153.2 788.288 147.2 794.963 145.325 803.213C141.275 821.025 158.188 837.525 174.95 831.787C241.4 809.025 280.063 789.113 305.525 776.025C324.95 766.013 336.838 763.988 359.113 775.988C387.313 791.138 431.788 815.063 493.85 839.925C511.4 846.975 529.288 831.45 525.95 813.15C524.45 804.863 518.788 797.963 510.913 794.775C451.738 770.963 409.25 748.125 382.25 733.612C339.763 710.775 334.813 706.725 283.175 733.275V733.275ZM257.15 855.15C248.6 859.125 243.313 867.787 243.725 877.125C244.363 891.637 257.525 900 269.713 900C273.125 900 276.5 899.325 279.463 897.937C343.213 868.237 321.088 866.438 392.975 898.125C395.825 899.4 399.013 900 402.35 900C414.35 900 427.738 892.05 428.525 877.387C429.05 867.787 423.5 858.9 414.65 855C321.05 813.937 346.138 813.9 257.15 855.15V855.15ZM345.425 322.425C350.638 310.162 344.788 296.025 332.45 290.887C320.075 285.75 305.863 291.488 300.65 303.75C260.975 397.425 160.738 469.65 28.6626 501.488C16.1001 504.525 8.00007 516.638 10.1001 529.275C12.3501 542.813 25.7376 551.7 39.3501 548.438C169.438 517.2 293.75 444.45 345.425 322.425ZM369.688 477.525C400.513 442.575 425.038 403.838 442.588 362.363C460.213 320.7 457.175 278.7 434.038 244.125C409.813 207.975 365.975 185.513 319.625 185.513C293.45 185.513 268.25 192.712 246.725 206.325C223.213 221.25 204.65 243.638 193.025 271.05C168.763 328.313 105.125 374.362 18.5001 398.962C7.70007 402.037 0.312571 411.9 0.500071 423.075C0.762571 438.675 15.8751 449.737 30.9876 445.462C132.238 416.737 207.763 360.6 237.8 289.725C254.45 250.35 287.375 233.7 319.625 233.7C373.175 233.7 425 279.6 397.813 343.762C340.475 479.212 206.188 566.4 54.4251 604.688C47.7501 606.375 42.0501 610.762 38.7876 616.8C35.5251 622.837 34.8876 629.963 37.1376 636.413C41.1501 648.038 53.4876 654.6 65.4501 651.6C139.85 632.887 208.663 603.6 266.9 565.575C306.2 539.887 340.775 510.3 369.688 477.525V477.525ZM151.475 245.025C162.463 226.237 172.888 208.5 190.813 192C233.188 152.962 290.638 134.137 348.463 140.287C402.95 146.1 450.988 173.363 480.238 215.025C520.738 272.738 510.575 330.037 500.75 385.425C492.313 432.787 483.65 481.762 510.613 524.625C530.975 556.987 569.525 581.55 629.75 599.85C642.463 603.713 655.963 596.175 659.188 583.388C662.45 570.45 654.95 557.288 642.088 553.313C595.363 538.988 565.588 521.062 551.825 499.162C534.688 471.937 541.138 435.75 548.563 393.788C559.025 334.875 572 261.562 520.1 187.537C482.825 134.4 422.188 99.75 353.675 92.4375C281.9 84.75 210.5 108.187 157.813 156.75C134.563 178.087 121.25 200.775 109.513 220.8C91.0251 252.3 75.4251 278.775 22.8126 295.988C14.4876 298.725 7.88757 305.775 6.50007 316.237C4.25007 333.487 20.9751 347.25 37.7001 341.812C108.163 318.787 130.1 281.4 151.475 245.025V245.025ZM74.2251 181.65L88.7376 160.2C146.825 77.0625 249.463 36.3 363.35 51.1125C471.575 65.2125 560.45 126.637 589.738 207.6C615.688 279.375 605.45 337.313 597.2 383.888C590.075 424.088 583.925 458.85 605.45 486.713C614.188 498.038 626.638 506.775 643.738 513.338C657.988 518.813 673.588 509.4 675.313 494.4C676.625 483.075 670.175 472.275 659.563 467.888C652.25 464.888 647.038 461.4 643.963 457.425C635.375 446.362 639.613 422.437 644.975 392.212C653.713 342.787 665.713 275.1 635.413 191.325C593.038 74.2125 457.438 0 318.388 0C225.913 0 136.138 33.075 72.6501 102.975C56.6376 120.9 46.7751 133.838 37.2126 155.813C30.9501 170.138 33.3876 180.487 43.8876 187.612C54.2001 194.625 67.4001 191.925 74.2251 181.65Z" fill="#4AB3FF" fill-opacity="0.04"/>
</svg>
