<svg width="348" height="170" viewBox="0 0 348 170" fill="none" xmlns="http://www.w3.org/2000/svg">
<rect y="3" width="174" height="28" fill="#1C5985"/>
<path d="M174 0L195.651 37.5H152.349L174 0Z" fill="white"/>
<path d="M40.9659 114.636C40.9659 119.078 40.1241 122.856 38.4403 125.972C36.7699 129.087 34.4896 131.467 31.5994 133.111C28.7225 134.741 25.4877 135.557 21.8949 135.557C18.2756 135.557 15.0275 134.735 12.1506 133.091C9.27367 131.447 7 129.067 5.32955 125.952C3.65909 122.836 2.82386 119.064 2.82386 114.636C2.82386 110.195 3.65909 106.417 5.32955 103.301C7 100.186 9.27367 97.8125 12.1506 96.1818C15.0275 94.5379 18.2756 93.7159 21.8949 93.7159C25.4877 93.7159 28.7225 94.5379 31.5994 96.1818C34.4896 97.8125 36.7699 100.186 38.4403 103.301C40.1241 106.417 40.9659 110.195 40.9659 114.636ZM32.2358 114.636C32.2358 111.759 31.8049 109.333 30.9432 107.358C30.0947 105.383 28.8949 103.884 27.3438 102.864C25.7926 101.843 23.9763 101.332 21.8949 101.332C19.8134 101.332 17.9972 101.843 16.446 102.864C14.8949 103.884 13.6884 105.383 12.8267 107.358C11.9782 109.333 11.554 111.759 11.554 114.636C11.554 117.513 11.9782 119.939 12.8267 121.915C13.6884 123.89 14.8949 125.388 16.446 126.409C17.9972 127.43 19.8134 127.94 21.8949 127.94C23.9763 127.94 25.7926 127.43 27.3438 126.409C28.8949 125.388 30.0947 123.89 30.9432 121.915C31.8049 119.939 32.2358 117.513 32.2358 114.636ZM66.7734 121.994V104.455H75.245V135H67.1115V129.452H66.7933C66.1039 131.241 64.9572 132.68 63.353 133.767C61.7621 134.854 59.8198 135.398 57.5263 135.398C55.4846 135.398 53.6882 134.934 52.1371 134.006C50.5859 133.078 49.3729 131.759 48.4979 130.048C47.6361 128.338 47.1986 126.29 47.1854 123.903V104.455H55.657V122.392C55.6702 124.195 56.1541 125.62 57.1087 126.668C58.0632 127.715 59.3426 128.239 60.9467 128.239C61.9676 128.239 62.9221 128.007 63.8104 127.543C64.6986 127.065 65.4145 126.363 65.9581 125.435C66.5149 124.507 66.7867 123.36 66.7734 121.994ZM82.0213 135V104.455H90.2344V109.784H90.5526C91.1094 107.888 92.044 106.456 93.3565 105.489C94.669 104.508 96.1804 104.017 97.8906 104.017C98.3149 104.017 98.7723 104.044 99.2628 104.097C99.7533 104.15 100.184 104.223 100.555 104.315V111.832C100.158 111.713 99.6075 111.607 98.9048 111.514C98.2022 111.421 97.5592 111.375 96.9759 111.375C95.7296 111.375 94.616 111.647 93.6349 112.19C92.6671 112.721 91.8982 113.463 91.3281 114.418C90.7713 115.372 90.4929 116.473 90.4929 117.719V135H82.0213Z" fill="#1C5985"/>
<path d="M155.707 135L144.054 94.2727H153.46L160.202 122.571H160.54L167.977 94.2727H176.031L183.449 122.631H183.807L190.548 94.2727H199.955L188.301 135H179.909L172.153 108.372H171.835L164.099 135H155.707ZM295.131 135V104.455H303.344V109.784H303.662C304.219 107.888 305.153 106.456 306.466 105.489C307.778 104.508 309.29 104.017 311 104.017C311.424 104.017 311.882 104.044 312.372 104.097C312.863 104.15 313.294 104.223 313.665 104.315V111.832C313.267 111.713 312.717 111.607 312.014 111.514C311.312 111.421 310.669 111.375 310.085 111.375C308.839 111.375 307.725 111.647 306.744 112.19C305.777 112.721 305.008 113.463 304.438 114.418C303.881 115.372 303.602 116.473 303.602 117.719V135H295.131ZM325.721 126.21L325.741 116.048H326.974L336.758 104.455H346.482L333.337 119.807H331.329L325.721 126.21ZM318.045 135V94.2727H326.516V135H318.045ZM337.136 135L328.147 121.696L333.795 115.71L347.059 135H337.136Z" fill="#1C5985"/>
<g clip-path="url(#clip0_14_188)">
<path d="M280.471 117.385C281.881 117.282 283.055 118.399 283.035 119.793C283.014 121.12 281.968 122.217 280.633 122.309C270.104 123.029 262.169 121.195 256.546 116.773C255.475 115.932 255.299 114.383 256.153 113.314C257.007 112.245 258.57 112.061 259.638 112.903C264.3 116.563 271.165 118.052 280.471 117.385ZM249.063 127.548C246.75 130.513 242.88 135.483 233.624 142.824C232.341 143.843 232.351 145.782 233.639 146.77C234.409 147.406 235.673 147.486 236.597 146.753C245.065 140.053 249.299 135.184 251.876 131.952C254.436 128.743 254.733 128.586 258.801 129.609C262.742 130.605 269.218 131.754 279.752 131.385C280.958 131.34 281.888 130.419 282.049 129.427C282.361 127.854 281.123 126.407 279.512 126.463C266.94 126.895 260.642 125.049 257.508 124.128C253.447 122.937 252.387 123.282 249.063 127.548ZM252.534 138.83C250.737 140.912 248.027 144.049 242.979 148.45C242.321 149.021 242.008 149.884 242.147 150.738C242.445 152.581 244.68 153.497 246.049 152.311C251.475 147.609 254.377 144.242 256.289 142.026C257.747 140.333 258.796 139.686 261.367 139.971C264.619 140.327 269.751 140.891 276.585 140.871C278.518 140.867 279.619 138.711 278.602 137.104C278.143 136.376 277.342 135.939 276.473 135.938C269.953 135.947 265.052 135.41 261.937 135.068C257.035 134.531 256.411 134.337 252.534 138.83ZM254.734 151.378C254.076 152.082 253.906 153.106 254.303 153.975C254.919 155.326 256.487 155.614 257.642 155.148C257.966 155.017 258.26 154.824 258.487 154.579C263.392 149.323 261.226 149.999 269.253 150.25C269.572 150.262 269.897 150.197 270.213 150.069C271.351 149.609 272.315 148.343 271.828 146.923C271.51 145.993 270.644 145.363 269.656 145.333C259.212 145.025 261.589 144.061 254.734 151.378ZM242.701 97.5067C242.725 96.1448 241.63 95.0289 240.263 95.0144C238.894 95.0014 237.767 96.0894 237.742 97.4513C237.569 107.849 230.834 118.533 219.535 126.608C218.461 127.377 218.157 128.835 218.84 129.952C219.572 131.149 221.181 131.479 222.346 130.648C233.48 122.706 242.476 111.051 242.701 97.5067ZM250.94 111.278C252.523 106.785 253.364 102.174 253.439 97.5712C253.514 92.9476 251.618 89.0832 248.101 86.6922C244.421 84.1936 239.406 83.7433 235.013 85.5182C232.532 86.5206 230.419 88.1679 228.9 90.2824C227.243 92.5973 226.341 95.43 226.289 98.4733C226.183 104.83 221.914 111.631 214.646 117.28C213.74 117.985 213.418 119.202 213.864 120.254C214.486 121.723 216.342 122.193 217.61 121.209C226.107 114.609 231.115 106.396 231.248 98.5287C231.318 94.1592 233.801 91.3203 236.858 90.0854C241.933 88.0348 248.603 90.4006 248.483 97.5229C248.236 112.556 238.847 125.962 225.929 135.402C225.361 135.818 224.989 136.452 224.911 137.149C224.833 137.846 225.045 138.546 225.505 139.071C226.331 140.019 227.751 140.169 228.77 139.427C235.105 134.804 240.506 129.393 244.569 123.559C247.311 119.62 249.455 115.491 250.94 111.278ZM221.355 97.5977C221.677 95.3963 221.985 93.316 223.053 91.0657C225.574 85.7431 230.298 81.759 236.014 80.1276C241.401 78.592 246.998 79.3364 251.366 82.165C257.414 86.0841 258.645 91.9041 259.835 97.5299C260.849 102.342 261.903 107.315 266.1 110.345C269.269 112.633 273.864 113.485 280.272 112.913C281.625 112.792 282.616 111.561 282.432 110.225C282.246 108.874 281.031 107.914 279.66 108.03C274.683 108.461 271.174 107.903 269.031 106.354C266.364 104.43 265.59 100.753 264.687 96.4916C263.422 90.5073 261.845 83.0619 254.091 78.0333C248.523 74.4244 241.449 73.4623 234.676 75.3928C227.579 77.4127 221.709 82.3682 218.575 88.9885C217.188 91.9011 216.796 94.5612 216.45 96.9086C215.904 100.602 215.439 103.709 211.112 107.355C210.428 107.933 210.072 108.854 210.341 109.899C210.788 111.62 212.901 112.284 214.278 111.128C220.074 106.247 220.722 101.864 221.355 97.5977ZM211.606 94.5493L212.16 91.9605C214.482 81.8565 222.649 74.0628 234.01 71.1056C244.808 68.2977 255.583 70.7162 261.46 77.2682C266.668 83.0773 267.916 88.9605 268.917 93.6908C269.782 97.7737 270.53 101.304 273.637 103.12C274.899 103.859 276.413 104.211 278.285 104.178C279.846 104.151 280.964 102.662 280.553 101.174C280.243 100.05 279.219 99.2736 278.045 99.2641C277.237 99.2598 276.609 99.1289 276.166 98.8699C274.928 98.1502 274.413 95.7204 273.764 92.6503C272.7 87.6313 271.245 80.7565 265.165 73.9766C256.664 64.4995 240.971 62.6583 227.792 67.983C219.027 71.5241 211.785 78.0967 208.444 87.1529C207.613 89.4649 207.174 91.0688 207.109 93.5178C207.064 95.1153 207.691 96.0029 208.959 96.2761C210.205 96.5459 211.353 95.7845 211.606 94.5493Z" fill="#4AB3FF" fill-opacity="0.53"/>
</g>
<defs>
<clipPath id="clip0_14_188">
<rect width="92" height="92" fill="white" transform="translate(187 84.4639) rotate(-22)"/>
</clipPath>
</defs>
</svg>
